dataset
version=1
nRows=22
nColumns=39
inDegrees=no
endheader
time	sternoclavicular_r2	sternoclavicular_r3	unrotscap_r3	unrotscap_r2	acromioclavicular_r2	acromioclavicular_r3	acromioclavicular_r1	unrothum_r1	unrothum_r3	unrothum_r2	elv_angle	shoulder_elv	shoulder1_r2	shoulder_rot	elbow_flexion	pro_sup	deviation	flexion	cmc_abduction	cmc_flexion	mp_flexion	ip_flexion	mcp2_flexion	mcp2_abduction	pm2_flexion	md2_flexion	mcp3_flexion	mcp3_abduction	pm3_flexion	md3_flexion	mcp4_flexion	mcp4_abduction	pm4_flexion	md4_flexion	mcp5_flexion	mcp5_abduction	pm5_flexion	md5_flexion
0.000000	-0.011655	-0.293326	0.147207	0.018087	-0.003790	0.103253	-0.107840	-0.093330	-0.010419	0.058959	0.020374	0.027437	0.146525	0.146525	1.355457	0.902388	0.000000	0.000000	0.000000	0.000000	0.000000	0.000000	0.000000	0.000000	0.000000	0.000000	0.000000	0.000000	0.000000	0.000000	0.000000	0.000000	0.000000	0.000000	0.000000	0.000000	0.000000	0.000000
0.005000	-0.011654	-0.293336	0.147234	0.018069	-0.003812	0.103273	-0.107858	-0.093296	-0.010475	0.058934	0.020339	0.027437	0.146525	0.146525	1.355652	0.906255	0.000000	0.000000	0.000000	0.000000	0.000000	0.000000	0.000000	0.000000	0.000000	0.000000	0.000000	0.000000	0.000000	0.000000	0.000000	0.000000	0.000000	0.000000	0.000000	0.000000	0.000000	0.000000
0.010000	-0.011653	-0.293345	0.147253	0.018049	-0.003835	0.103285	-0.107870	-0.093274	-0.010518	0.058908	0.020305	0.027437	0.146525	0.146525	1.355846	0.910085	0.000000	0.000000	0.000000	0.000000	0.000000	0.000000	0.000000	0.000000	0.000000	0.000000	0.000000	0.000000	0.000000	0.000000	0.000000	0.000000	0.000000	0.000000	0.000000	0.000000	0.000000	0.000000
0.015000	-0.011651	-0.293353	0.147267	0.018027	-0.003859	0.103295	-0.107879	-0.093258	-0.010554	0.058883	0.020273	0.027437	0.146525	0.146525	1.356038	0.913878	0.000000	0.000000	0.000000	0.000000	0.000000	0.000000	0.000000	0.000000	0.000000	0.000000	0.000000	0.000000	0.000000	0.000000	0.000000	0.000000	0.000000	0.000000	0.000000	0.000000	0.000000	0.000000
0.020000	-0.011649	-0.293360	0.147279	0.018005	-0.003883	0.103303	-0.107887	-0.093245	-0.010586	0.058857	0.020242	0.027437	0.146525	0.146525	1.356228	0.917634	0.000000	0.000000	0.000000	0.000000	0.000000	0.000000	0.000000	0.000000	0.000000	0.000000	0.000000	0.000000	0.000000	0.000000	0.000000	0.000000	0.000000	0.000000	0.000000	0.000000	0.000000	0.000000
0.025000	-0.011647	-0.293368	0.147289	0.017983	-0.003907	0.103309	-0.107893	-0.093235	-0.010616	0.058832	0.020211	0.027437	0.146525	0.146525	1.356415	0.921355	0.000000	0.000000	0.000000	0.000000	0.000000	0.000000	0.000000	0.000000	0.000000	0.000000	0.000000	0.000000	0.000000	0.000000	0.000000	0.000000	0.000000	0.000000	0.000000	0.000000	0.000000	0.000000
0.030000	-0.011646	-0.293375	0.147298	0.017960	-0.003931	0.103315	-0.107899	-0.093225	-0.010645	0.058808	0.020181	0.027437	0.146525	0.146525	1.356600	0.925039	0.000000	0.000000	0.000000	0.000000	0.000000	0.000000	0.000000	0.000000	0.000000	0.000000	0.000000	0.000000	0.000000	0.000000	0.000000	0.000000	0.000000	0.000000	0.000000	0.000000	0.000000	0.000000
0.035000	-0.011644	-0.293382	0.147308	0.017938	-0.003955	0.103321	-0.107904	-0.093216	-0.010672	0.058783	0.020151	0.027437	0.146525	0.146525	1.356783	0.928688	0.000000	0.000000	0.000000	0.000000	0.000000	0.000000	0.000000	0.000000	0.000000	0.000000	0.000000	0.000000	0.000000	0.000000	0.000000	0.000000	0.000000	0.000000	0.000000	0.000000	0.000000	0.000000
0.040000	-0.011642	-0.293388	0.147316	0.017916	-0.003979	0.103327	-0.107910	-0.093207	-0.010699	0.058759	0.020122	0.027437	0.146525	0.146525	1.356963	0.932302	0.000000	0.000000	0.000000	0.000000	0.000000	0.000000	0.000000	0.000000	0.000000	0.000000	0.000000	0.000000	0.000000	0.000000	0.000000	0.000000	0.000000	0.000000	0.000000	0.000000	0.000000	0.000000
0.045000	-0.011640	-0.293395	0.147325	0.017893	-0.004002	0.103332	-0.107915	-0.093199	-0.010726	0.058735	0.020092	0.027437	0.146525	0.146525	1.357141	0.935881	0.000000	0.000000	0.000000	0.000000	0.000000	0.000000	0.000000	0.000000	0.000000	0.000000	0.000000	0.000000	0.000000	0.000000	0.000000	0.000000	0.000000	0.000000	0.000000	0.000000	0.000000	0.000000
0.050000	-0.011638	-0.293402	0.147333	0.017872	-0.004026	0.103337	-0.107920	-0.093190	-0.010752	0.058711	0.020063	0.027437	0.146525	0.146525	1.357317	0.939426	0.000000	0.000000	0.000000	0.000000	0.000000	0.000000	0.000000	0.000000	0.000000	0.000000	0.000000	0.000000	0.000000	0.000000	0.000000	0.000000	0.000000	0.000000	0.000000	0.000000	0.000000	0.000000
0.055000	-0.011636	-0.293408	0.147342	0.017850	-0.004049	0.103343	-0.107925	-0.093182	-0.010778	0.058687	0.020035	0.027437	0.146525	0.146525	1.357491	0.942935	0.000000	0.000000	0.000000	0.000000	0.000000	0.000000	0.000000	0.000000	0.000000	0.000000	0.000000	0.000000	0.000000	0.000000	0.000000	0.000000	0.000000	0.000000	0.000000	0.000000	0.000000	0.000000
0.060000	-0.011635	-0.293414	0.147350	0.017829	-0.004072	0.103348	-0.107930	-0.093174	-0.010804	0.058664	0.020006	0.027437	0.146525	0.146525	1.357662	0.946411	0.000000	0.000000	0.000000	0.000000	0.000000	0.000000	0.000000	0.000000	0.000000	0.000000	0.000000	0.000000	0.000000	0.000000	0.000000	0.000000	0.000000	0.000000	0.000000	0.000000	0.000000	0.000000
0.065000	-0.011633	-0.293421	0.147358	0.017807	-0.004094	0.103353	-0.107935	-0.093166	-0.010829	0.058641	0.019978	0.027437	0.146525	0.146525	1.357832	0.949853	0.000000	0.000000	0.000000	0.000000	0.000000	0.000000	0.000000	0.000000	0.000000	0.000000	0.000000	0.000000	0.000000	0.000000	0.000000	0.000000	0.000000	0.000000	0.000000	0.000000	0.000000	0.000000
0.070000	-0.011631	-0.293427	0.147366	0.017786	-0.004117	0.103358	-0.107940	-0.093159	-0.010854	0.058617	0.019950	0.027437	0.146525	0.146525	1.357999	0.953262	0.000000	0.000000	0.000000	0.000000	0.000000	0.000000	0.000000	0.000000	0.000000	0.000000	0.000000	0.000000	0.000000	0.000000	0.000000	0.000000	0.000000	0.000000	0.000000	0.000000	0.000000	0.000000
0.075000	-0.011629	-0.293433	0.147374	0.017765	-0.004139	0.103363	-0.107944	-0.093151	-0.010878	0.058595	0.019923	0.027437	0.146525	0.146525	1.358165	0.956637	0.000000	0.000000	0.000000	0.000000	0.000000	0.000000	0.000000	0.000000	0.000000	0.000000	0.000000	0.000000	0.000000	0.000000	0.000000	0.000000	0.000000	0.000000	0.000000	0.000000	0.000000	0.000000
0.080000	-0.011627	-0.293439	0.147382	0.017745	-0.004161	0.103368	-0.107949	-0.093144	-0.010902	0.058572	0.019895	0.027437	0.146525	0.146525	1.358328	0.959980	0.000000	0.000000	0.000000	0.000000	0.000000	0.000000	0.000000	0.000000	0.000000	0.000000	0.000000	0.000000	0.000000	0.000000	0.000000	0.000000	0.000000	0.000000	0.000000	0.000000	0.000000	0.000000
0.085000	-0.011626	-0.293445	0.147390	0.017724	-0.004183	0.103373	-0.107954	-0.093137	-0.010926	0.058550	0.019868	0.027437	0.146525	0.146525	1.358490	0.963290	0.000000	0.000000	0.000000	0.000000	0.000000	0.000000	0.000000	0.000000	0.000000	0.000000	0.000000	0.000000	0.000000	0.000000	0.000000	0.000000	0.000000	0.000000	0.000000	0.000000	0.000000	0.000000
0.090000	-0.011624	-0.293451	0.147398	0.017704	-0.004205	0.103378	-0.107958	-0.093130	-0.010949	0.058527	0.019842	0.027437	0.146525	0.146525	1.358650	0.966567	0.000000	0.000000	0.000000	0.000000	0.000000	0.000000	0.000000	0.000000	0.000000	0.000000	0.000000	0.000000	0.000000	0.000000	0.000000	0.000000	0.000000	0.000000	0.000000	0.000000	0.000000	0.000000
0.095000	-0.011622	-0.293456	0.147406	0.017684	-0.004227	0.103383	-0.107963	-0.093123	-0.010972	0.058505	0.019815	0.027437	0.146525	0.146525	1.358808	0.969813	0.000000	0.000000	0.000000	0.000000	0.000000	0.000000	0.000000	0.000000	0.000000	0.000000	0.000000	0.000000	0.000000	0.000000	0.000000	0.000000	0.000000	0.000000	0.000000	0.000000	0.000000	0.000000
0.100000	-0.011621	-0.293462	0.147414	0.017664	-0.004248	0.103389	-0.107967	-0.093116	-0.010994	0.058484	0.019789	0.027437	0.146525	0.146525	1.358965	0.973026	0.000000	0.000000	0.000000	0.000000	0.000000	0.000000	0.000000	0.000000	0.000000	0.000000	0.000000	0.000000	0.000000	0.000000	0.000000	0.000000	0.000000	0.000000	0.000000	0.000000	0.000000	0.000000
0.105000	-0.011619	-0.293467	0.147421	0.017644	-0.004269	0.103394	-0.107972	-0.093110	-0.011016	0.058462	0.019763	0.027437	0.146525	0.146525	1.359120	0.976209	0.000000	0.000000	0.000000	0.000000	0.000000	0.000000	0.000000	0.000000	0.000000	0.000000	0.000000	0.000000	0.000000	0.000000	0.000000	0.000000	0.000000	0.000000	0.000000	0.000000	0.000000	0.000000
